:SAMPLES-PER-SECOND 30
:FULLY-SPECIFIED
:DEGREES
651
root  -47.9202 39.9631 9.12855 -10.2586 14.1487 -0.445526
RightUpLeg  -5.10498 3.49975 2.91519
RightLeg  8.80986 19.7891 0.399438
RightFoot  1.94869 -0.419793 3.9308
RightToes  4.01633e-009 0 -3.6325e-017
Spine  11.8442 -1.03013 -0.363198
Spine1  11.0706 -1.34913 0.115524
HEad  51.2925 21.7855 -166.83
LeftShoulder1  0.624247 1.62263 -27.0203
LeftArm  -7.66055 -0.562092 -43.2785
LeftForeArm  11.9083 -19.0538 -4.29095
LeftHand  -0.122171 2.47085 4.38666
RightShoulder  -0.237185 -4.25772 24.0845
RightArm  14.6882 -3.22 40.8019
RightForeArm  -2.01269 24.6242 5.37392
RightHand  -0.701081 2.68744 -10.2655
LeftUpLeg  6.18046 1.07964 -3.36123
LeftLeg  15.692 -8.35061 -1.12521
LeftFoot  -14.8799 0.164106 2.5119
LeftToes  -1.95724e-009 9.62483e-011 3.51777e-011
652
root  -47.451 39.9441 9.94966 -10.5067 15.7353 -0.579132
RightUpLeg  -5.1618 6.47252 3.19954
RightLeg  11.6932 15.986 1.04425
RightFoot  4.03716 0.175832 -1.18717
RightToes  4.01633e-009 0 -3.6325e-017
Spine  11.0082 -1.09019 1.45189
Spine1  10.9861 -0.870513 -1.12358
HEad  45.6374 16.8654 -171.994
LeftShoulder1  0.589219 1.70964 -26.6744
LeftArm  -11.9551 1.78312 -40.0912
LeftForeArm  10.7445 -14.3673 -4.25634
LeftHand  -0.0679148 3.63287 3.35932
RightShoulder  -0.229318 -4.23464 23.9533
RightArm  12.4686 -2.95329 40.4437
RightForeArm  -3.08515 22.8617 5.06385
RightHand  -0.627603 2.70451 -9.21281
LeftUpLeg  8.03249 -0.445692 -4.24208
LeftLeg  15.1739 -7.98054 -0.854425
LeftFoot  -14.1869 0.199568 4.54604
LeftToes  -1.95724e-009 9.62483e-011 3.51777e-011
653
root  -46.9179 39.8126 10.7242 -10.7303 17.4669 -0.637909
RightUpLeg  -5.12894 8.41335 1.95642
RightLeg  15.1881 11.9976 2.50343
RightFoot  1.15058 0.120581 -1.02187
RightToes  4.01633e-009 0 -3.6325e-017
Spine  10.4894 -1.36254 3.14682
Spine1  10.9819 -0.734025 -2.15281
HEad  42.5616 11.4889 -174.808
LeftShoulder1  0.562544 1.79933 -26.8348
LeftArm  -12.3391 3.8267 -36.5042
LeftForeArm  7.212 -10.1655 -4.32495
LeftHand  -0.0413888 4.5835 3.39193
RightShoulder  -0.228157 -4.24072 23.5522
RightArm  8.99345 -2.62894 41.0267
RightForeArm  -3.89123 21.4686 4.85928
RightHand  -0.638556 2.42111 -9.68257
LeftUpLeg  9.14103 -2.98967 -5.52841
LeftLeg  16.1888 -6.09289 -0.778279
LeftFoot  -14.6967 0.251998 5.55549
LeftToes  -1.95724e-009 9.62483e-011 3.51777e-011
654
root  -46.3605 39.686 11.4275 -10.9687 19.693 -1.56036
RightUpLeg  -4.97343 6.34677 1.45501
RightLeg  17.7908 11.7396 3.83755
RightFoot  -1.26499 0.0742736 -0.941432
RightToes  4.01633e-009 0 -3.6325e-017
Spine  9.77491 -1.65133 5.87208
Spine1  11.4463 -0.651513 -2.61172
HEad  40.2353 7.94638 -177.952
LeftShoulder1  0.558881 1.80678 -26.7903
LeftArm  -11.2686 5.49825 -34.4942
LeftForeArm  4.40064 -6.80205 -4.60937
LeftHand  -0.0118047 5.80266 4.88912
RightShoulder  -0.282558 -4.42234 23.5593
RightArm  5.60021 -2.47663 41.0705
RightForeArm  -4.42261 21.1721 4.76502
RightHand  -0.663318 2.99466 -9.39691
LeftUpLeg  9.32026 -5.44202 -5.63615
LeftLeg  18.3584 -5.15022 -1.45188
LeftFoot  -15.2008 0.314481 6.64382
LeftToes  -1.95724e-009 9.62483e-011 3.51777e-011
655
root  -45.856 39.6566 12.0448 -10.6375 22.8463 -2.56796
RightUpLeg  -4.62482 3.66698 1.29721
RightLeg  18.717 11.4242 3.91408
RightFoot  -3.15589 0.0491391 -0.990093
RightToes  4.01633e-009 0 -3.6325e-017
Spine  8.93744 -1.89398 7.83382
Spine1  11.5636 -0.922027 -1.79489
HEad  38.8196 6.25341 179.867
LeftShoulder1  0.5027 2.01572 -27.6242
LeftArm  -9.94098 6.96387 -33.01
LeftForeArm  4.52776 -4.85278 -5.05183
LeftHand  -0.0336428 5.16411 5.55007
RightShoulder  -0.266001 -4.36954 23.443
RightArm  3.90594 -2.26755 41.2386
RightForeArm  -3.93645 20.5776 4.58083
RightHand  -0.62666 2.95782 -8.93033
LeftUpLeg  7.41404 -5.04584 -4.58168
LeftLeg  22.5752 -7.32731 -3.05568
LeftFoot  -14.4485 0.272173 6.91629
LeftToes  -1.95724e-009 9.62483e-011 3.51777e-011
656
root  -45.4311 39.676 12.561 -9.53397 26.8358 -2.59479
RightUpLeg  -4.62705 1.06586 0.357587
RightLeg  19.2237 10.3274 3.35517
RightFoot  -4.81672 0.0227535 -0.963041
RightToes  4.01633e-009 0 -3.6325e-017
Spine  8.09797 -1.87729 8.99617
Spine1  11.6152 -0.797023 -1.38054
HEad  37.899 7.37507 178.916
LeftShoulder1  0.547268 1.8805 -27.5675
LeftArm  -9.61686 7.99713 -32.9885
LeftForeArm  7.83096 -4.63112 -5.18845
LeftHand  0.0204424 6.59927 4.79594
RightShoulder  -0.349517 -4.63746 23.8037
RightArm  4.10412 -1.93095 41.784
RightForeArm  -4.11762 19.61 4.42503
RightHand  -0.632593 2.76514 -9.21736
LeftUpLeg  3.68466 -2.83768 -3.4312
LeftLeg  28.7014 -11.4752 -6.42324
LeftFoot  -12.4712 0.118216 4.1723
LeftToes  -1.95724e-009 9.62483e-011 3.51777e-011
657
root  -45.0369 39.6665 12.9858 -8.13757 31.4029 -2.50754
RightUpLeg  -4.94433 -2.4504 -0.811069
RightLeg  19.8266 9.70917 2.9862
RightFoot  -6.55679 -0.0235416 -0.490611
RightToes  4.01633e-009 0 -3.6325e-017
Spine  7.98194 -1.87344 10.1006
Spine1  10.6129 -0.650672 -0.922541
HEad  37.7241 9.75008 179.469
LeftShoulder1  0.544902 1.90057 -27.8493
LeftArm  -8.76844 9.22531 -33.1198
LeftForeArm  9.48084 -5.92422 -5.73869
LeftHand  0.0183244 6.69329 4.37292
RightShoulder  -0.333777 -4.58448 23.7631
RightArm  6.17507 -2.27898 42.7384
RightForeArm  -5.13274 19.0016 4.5416
RightHand  -0.637359 2.22982 -9.87043
LeftUpLeg  -1.28959 -0.344264 -1.99047
LeftLeg  35.9669 -14.2035 -10.4968
LeftFoot  -10.89 0.114915 -6.05321
LeftToes  -1.95724e-009 9.62483e-011 3.51777e-011
658
root  -44.6496 39.6987 13.38 -7.17859 35.6532 -2.26132
RightUpLeg  -4.21169 -5.79522 -1.93773
RightLeg  19.482 9.07239 2.50154
RightFoot  -7.83821 -0.0562863 0.0872334
RightToes  4.01633e-009 0 -3.6325e-017
Spine  8.18594 -1.73635 11.7532
Spine1  10.1586 0.0122538 -1.82103
HEad  37.9097 12.4406 179.228
LeftShoulder1  0.586629 1.77104 -27.7084
LeftArm  -8.26322 10.3674 -34.0927
LeftForeArm  11.8286 -8.06853 -6.12075
LeftHand  -0.0061669 6.12124 3.62314
RightShoulder  -0.429322 -4.86487 24.6537
RightArm  9.54263 -1.19409 43.6264
RightForeArm  -5.08442 17.8411 4.82871
RightHand  -0.544337 1.94412 -8.82005
LeftUpLeg  -5.80405 2.24523 -0.836116
LeftLeg  42.5027 -14.655 -13.5697
LeftFoot  -8.94867 0.342926 -14.6123
LeftToes  -1.95724e-009 9.62483e-011 3.51777e-011
659
root  -44.2275 39.8566 13.779 -5.88324 39.4476 -1.00473
RightUpLeg  -2.52345 -8.38108 -3.84723
RightLeg  17.9452 8.20967 1.98634
RightFoot  -8.35833 -0.0699139 0.503446
RightToes  4.01633e-009 0 -3.6325e-017
Spine  8.36069 -1.49702 12.1672
Spine1  10.104 0.574064 -2.76311
HEad  38.9512 15.7428 179.899
LeftShoulder1  0.585353 1.78889 -28.0182
LeftArm  -7.00354 11.6628 -35.0155
LeftForeArm  12.3524 -10.6091 -6.38533
LeftHand  -0.032266 5.1187 3.24186
RightShoulder  -0.390598 -4.74863 24.4156
RightArm  13.9835 0.385877 45.4398
RightForeArm  -5.90501 16.9097 5.47491
RightHand  -0.574749 2.7865 -8.3792
LeftUpLeg  -9.75387 4.26181 -0.671867
LeftLeg  46.8789 -12.8669 -13.9155
LeftFoot  -9.31811 0.290723 -13.2754
LeftToes  -1.95724e-009 9.62483e-011 3.51777e-011
660
root  -43.7587 40.0171 14.1488 -4.43631 42.9245 0.335052
RightUpLeg  -0.676931 -10.2207 -5.77007
RightLeg  16.1979 7.21001 1.65143
RightFoot  -8.59789 -0.0869212 1.19734
RightToes  4.01633e-009 0 -3.6325e-017
Spine  8.91759 -1.32394 12.545
Spine1  9.35354 1.06386 -3.84283
HEad  40.0244 18.9912 -178.978
LeftShoulder1  0.475211 2.13819 -28.6599
LeftArm  -5.42187 13.1589 -36.1273
LeftForeArm  12.9624 -12.9938 -6.21633
LeftHand  -0.0379136 4.59736 2.21101
RightShoulder  -0.360365 -4.65254 24.3506
RightArm  18.6961 1.85115 46.9983
RightForeArm  -4.93856 17.294 5.90759
RightHand  -0.540311 2.05811 -8.61976
LeftUpLeg  -13.1089 5.88095 -0.345694
LeftLeg  48.086 -10.8041 -12.242
LeftFoot  -9.10942 0.284137 -11.7859
LeftToes  -1.95724e-009 9.62483e-011 3.51777e-011
661
root  -43.2873 40.1208 14.5326 -3.05768 45.9793 1.84937
RightUpLeg  1.33932 -11.3737 -7.57536
RightLeg  14.7541 5.72339 1.35121
RightFoot  -9.08394 -0.09619 1.75583
RightToes  4.01633e-009 0 -3.6325e-017
Spine  9.52874 -1.06322 12.7207
Spine1  8.87789 1.66233 -5.14371
HEad  41.4366 20.862 -176.946
LeftShoulder1  0.421835 2.28964 -28.6189
LeftArm  -4.76241 14.5632 -38.2749
LeftForeArm  14.0482 -14.1769 -5.97163
LeftHand  -0.037447 3.9829 1.37617
RightShoulder  -0.325929 -4.54594 24.1908
RightArm  21.1738 3.19588 48.7664
RightForeArm  -3.55391 17.7228 5.94707
RightHand  -0.514811 2.76432 -7.53612
LeftUpLeg  -15.5225 7.08046 -0.110191
LeftLeg  46.3764 -9.30719 -9.93074
LeftFoot  -9.01146 0.266734 -10.4436
LeftToes  -1.95724e-009 9.62483e-011 3.51777e-011
662
root  -42.7363 40.1948 14.9292 -1.68579 49.0042 3.36163
RightUpLeg  3.54577 -12.1256 -9.19857
RightLeg  13.4036 3.91332 1.02579
RightFoot  -9.55401 -0.100731 2.29571
RightToes  4.01633e-009 0 -3.6325e-017
Spine  9.38156 -0.758508 12.7155
Spine1  9.33265 2.19502 -6.28421
HEad  42.7069 23.6283 -175.935
LeftShoulder1  0.503453 2.05511 -28.6302
LeftArm  -4.50946 15.8354 -40.4762
LeftForeArm  15.4035 -14.3235 -5.98696
LeftHand  -0.0255005 3.64776 0.371516
RightShoulder  -0.355196 -4.64534 24.0898
RightArm  23.4229 4.23971 50.1433
RightForeArm  -4.54612 19.4931 5.5914
RightHand  -0.494184 2.3153 -7.63309
LeftUpLeg  -16.8894 7.52696 0.0887661
LeftLeg  41.8362 -9.12497 -8.27921
LeftFoot  -9.4219 0.227405 -10.1952
LeftToes  -1.95724e-009 9.62483e-011 3.51777e-011
663
root  -42.1717 40.2463 15.3073 0.0101318 51.7914 4.85034
RightUpLeg  5.51828 -12.5271 -10.4416
RightLeg  11.8502 1.78326 0.691766
RightFoot  -9.90166 -0.103309 2.87184
RightToes  4.01633e-009 0 -3.6325e-017
Spine  9.519 -0.461229 12.2694
Spine1  9.0227 2.53311 -7.059
HEad  44.4969 25.7292 -174.046
LeftShoulder1  0.448467 2.23571 -29.2622
LeftArm  -4.23163 17.0183 -42.0519
LeftForeArm  16.7848 -13.9945 -6.20702
LeftHand  -0.0301815 3.35992 0.672031
RightShoulder  -0.345383 -4.60405 24.3402
RightArm  25.0272 5.18701 50.6452
RightForeArm  -6.71281 21.235 5.39234
RightHand  -0.568643 2.9888 -8.10134
LeftUpLeg  -17.8869 7.95842 0.227155
LeftLeg  35.2633 -9.70735 -6.95478
LeftFoot  -9.26001 0.210983 -8.56435
LeftToes  -1.95724e-009 9.62483e-011 3.51777e-011
